Coordinates
version=1
nRows=21
nColumns=19
inDegrees=yes

Units are S.I. units (second, meters, Newtons, ...)
If the header above contains a line with 'inDegrees', this indicates whether rotational values are in degrees (yes) or radians (no).

endheader
time	pelvis_tilt	pelvis_list	pelvis_rotation	pelvis_tx	pelvis_ty	pelvis_tz	hip_flexion_r	hip_adduction_r	hip_rotation_r	knee_angle_r	knee_angle_r_beta	ankle_angle_r	hip_flexion_l	hip_adduction_l	hip_rotation_l	knee_angle_l	knee_angle_l_beta	ankle_angle_l
     13.66000000	     -6.39379948	      4.57152284	      4.39100700	      2.30541872	      0.98024848	      0.97177733	    -11.76456522	     -4.36723154	     -9.35835856	     33.94363093	      0.59242812	    -12.91712445	     22.85845319	      8.08615607	     -4.70093446	     10.57312236	      0.18453580	     -6.28456034
     13.66666667	     -5.77015940	      5.02829440	      4.75446806	      2.30573038	      0.97780637	      0.97075207	    -11.56327501	     -5.02112723	     -9.42025679	     37.23317848	      0.64984156	    -11.92942025	     22.15392058	      8.74324722	     -5.17065059	     11.32546285	      0.19766662	     -5.61803475
     13.67333333	     -5.14826935	      5.57135104	      5.12001648	      2.30596608	      0.97493319	      0.96976299	    -11.28060078	     -5.76167068	     -9.46242554	     40.63067454	      0.70913905	    -10.90277091	     21.54506429	      9.43651721	     -5.70148629	     12.64477864	      0.22069302	     -4.41739317
     13.68000000	     -5.04319390	      5.90984082	      5.48585806	      2.30571770	      0.97106035	      0.96881571	    -10.18951220	     -6.38384117	     -9.43561999	     44.31782846	      0.77349202	     -9.88008633	     21.77690671	      9.85400662	     -6.42588385	     14.76634686	      0.25772137	     -2.62007669
     13.68666667	     -4.61777218	      6.34807099	      5.93572129	      2.30552953	      0.96722694	      0.96792481	     -9.48865881	     -7.04250457	     -9.51805787	     47.86769025	      0.83544880	     -8.92076734	     21.62893479	     10.35292756	     -6.89088594	     17.15968946	      0.29949308	     -0.37157378
     13.69333333	     -3.75457218	      6.99198761	      6.38156160	      2.30538361	      0.96358116	      0.96707216	     -9.28786644	     -7.97952433	     -9.92430414	     51.36807799	      0.89654209	     -7.94521499	     20.87515002	     11.05581655	     -7.02844655	     19.56215918	      0.34142409	      2.20532526
     13.70000000	     -3.58983074	      7.20192307	      6.81851655	      2.30468576	      0.95889185	      0.96626556	     -8.04405367	     -8.50697260	     -9.95950644	     55.02452796	      0.96035918	     -7.11371130	     21.16697301	     11.28840767	     -7.17362924	     22.61212894	      0.39465610	      5.20232392
     13.70666667	     -3.04077835	      7.58309336	      7.20603684	      2.30403924	      0.95457235	      0.96557112	     -7.24541239	     -9.23074371	    -10.11279030	     58.52715906	      1.02149163	     -6.21755315	     20.85436679	     11.70482340	     -7.00245928	     25.43168895	      0.44386671	      8.19235861
     13.71333333	     -2.74473942	      7.77005085	      7.56049497	      2.30304916	      0.94993827	      0.96494512	     -6.00093191	     -9.79024882	    -10.10362333	     62.03964025	      1.08279599	     -5.26390104	     20.85986491	     11.94183144	     -6.68179893	     28.33198843	      0.49448648	     11.14291835
     13.72000000	     -1.91449358	      8.11789967	      7.77627829	      2.30208282	      0.94606883	      0.96446509	     -5.35200101	    -10.50126734	    -10.09826033	     65.30935037	      1.13986320	     -4.34443904	     20.08909387	     12.29122505	     -6.26196047	     30.89025612	      0.53913668	     14.02390338
     13.72666667	     -1.87770564	      8.00300596	      7.98643859	      2.30057448	      0.94147485	      0.96402759	     -3.52473853	    -10.77605442	     -9.74776188	     68.64806627	      1.19813478	     -3.45066361	     20.31873745	     12.26431073	     -5.64742488	     33.58319637	      0.58613735	     16.72345529
     13.73333333	     -1.48369278	      7.99979712	      8.04936356	      2.29901801	      0.93760490	      0.96374847	     -2.05840845	    -11.14093950	     -9.33602118	     71.75041729	      1.25228102	     -2.49010615	     19.97682086	     12.27494704	     -5.10893534	     35.88562417	      0.62632230	     19.14204539
     13.74000000	     -1.12401592	      7.91132250	      8.00843116	      2.29732065	      0.93408197	      0.96361176	     -0.44240898	    -11.39438066	     -8.77504652	     74.67032027	      1.30324294	     -1.52303367	     19.56591628	     12.16533485	     -4.60652688	     37.91513373	      0.66174392	     21.30205332
     13.74666667	     -0.85981832	      7.74554781	      7.86593793	      2.29552371	      0.93089719	      0.96363961	      1.38794689	    -11.53430640	     -8.05600416	     77.39890003	      1.35086564	     -0.55784401	     19.13434843	     11.93516662	     -4.17912923	     39.64102656	      0.69186643	     23.14924783
     13.75333333	     -0.56925788	      7.56445950	      7.67322732	      2.29369494	      0.92817520	      0.96374266	      3.22571235	    -11.63246290	     -7.32174753	     79.88179318	      1.39420030	      0.41974357	     18.52487019	     11.61697334	     -3.89944783	     41.05466826	      0.71653913	     24.73319341
     13.76000000	     -0.35890626	      7.35132241	      7.38267397	      2.29190084	      0.92586999	      0.96402723	      5.21446937	    -11.64972033	     -6.48026856	     82.12458367	      1.43334438	      1.34951259	     17.82827329	     11.21400057	     -3.75017855	     42.11090592	      0.73497396	     26.05169258
     13.76666667	      0.00078946	      7.18150155	      7.13221452	      2.29024331	      0.92423292	      0.96430289	      6.96920793	    -11.69228715	     -5.78351109	     84.03272389	      1.46664771	      2.25033748	     16.74419679	     10.83851429	     -3.57223806	     42.78149508	      0.74667795	     27.24975624
     13.77333333	     -0.19477356	      6.93465552	      6.77456931	      2.28850937	      0.92241718	      0.96475645	      9.47039128	    -11.60024873	     -4.83769608	     85.80432735	      1.49756802	      3.02564495	     16.17619167	     10.35388205	     -3.68844120	     43.22826916	      0.75447563	     28.02323617
     13.78000000	     -0.07649880	      6.77414579	      6.57257381	      2.28704811	      0.92144087	      0.96501315	     11.44186434	    -11.63913862	     -4.25701502	     87.17170703	      1.52143330	      3.71873452	     15.02526311	      9.98496966	     -3.62436447	     43.31501940	      0.75598970	     28.83224218
     13.78666667	     -0.18512818	      6.62130743	      6.38263650	      2.28564852	      0.92067652	      0.96528987	     13.64792074	    -11.65051788	     -3.66088516	     88.28668100	      1.54089327	      4.34385910	     13.97406946	      9.64533048	     -3.62842494	     43.12447802	      0.75266413	     29.36157749
     13.79333333	     -0.40310176	      6.47120246	      6.29436253	      2.28447500	      0.92028465	      0.96543163	     15.86994423	    -11.69233864	     -3.22793607	     89.08686847	      1.55485918	      4.88685870	     12.89017461	      9.34927708	     -3.56303650	     42.67993766	      0.74490544	     29.72986634
